HIERARCHY
ROOT Hips
{
   OFFSET 0.00000 0.00000 0.00000
   CHANNELS 6 Xposition Yposition Zposition Zrotation Xrotation Yrotation
   JOINT RightUpLeg
   {
      OFFSET -10.734961 -10.400485 0.121982
      CHANNELS 3 Zrotation Xrotation Yrotation
      JOINT RightLeg
      {
         OFFSET 0.000000 -53.307237 1.647240
         CHANNELS 3 Zrotation Xrotation Yrotation
         JOINT RightFoot
         {
            OFFSET 0.304259 -50.510883 -1.752708
            CHANNELS 3 Zrotation Xrotation Yrotation
            JOINT RightToes
            {
               OFFSET 0.048000 -5.298108 10.198920
               CHANNELS 3 Zrotation Xrotation Yrotation
               End Site
               {
                  OFFSET -0.096000 -0.164938 11.735748
               }
            }
         }
      }
   }
   JOINT Spine
   {
      OFFSET 0.000000 14.268601 0.000000
      CHANNELS 3 Zrotation Xrotation Yrotation
      JOINT Spine1
      {
         OFFSET 0.000000 30.788881 0.153196
         CHANNELS 3 Zrotation Xrotation Yrotation
         JOINT HEad
         {
            OFFSET 0.000000 10.480993 0.013609
            CHANNELS 3 Zrotation Xrotation Yrotation
            End Site
            {
               OFFSET -0.348000 15.329041 3.016740
            }
         }
         JOINT LeftShoulder1
         {
            OFFSET 10.788001 -0.434702 -0.264000
            CHANNELS 3 Zrotation Xrotation Yrotation
            JOINT LeftArm
            {
               OFFSET 12.339240 -0.004056 0.386548
               CHANNELS 3 Zrotation Xrotation Yrotation
               JOINT LeftForeArm
               {
                  OFFSET 39.320280 0.118973 -1.709208
                  CHANNELS 3 Zrotation Xrotation Yrotation
                  JOINT LeftHand
                  {
                     OFFSET 33.077163 0.102434 1.226592
                     CHANNELS 3 Zrotation Xrotation Yrotation
                     End Site
                     {
                        OFFSET 20.093162 -0.720000 1.803492
                     }
                  }
               }
            }
         }
         JOINT RightShoulder
         {
            OFFSET -10.788001 -0.434702 -0.264000
            CHANNELS 3 Zrotation Xrotation Yrotation
            JOINT RightArm
            {
               OFFSET -12.339240 -0.004056 0.386548
               CHANNELS 3 Zrotation Xrotation Yrotation
               JOINT RightForeArm
               {
                  OFFSET -39.476518 0.118973 -1.709208
                  CHANNELS 3 Zrotation Xrotation Yrotation
                  JOINT RightHand
                  {
                     OFFSET -32.990522 0.102434 1.226592
                     CHANNELS 3 Zrotation Xrotation Yrotation
                     End Site
                     {
                        OFFSET -19.957442 -0.720000 1.803492
                     }
                  }
               }
            }
         }
      }
   }
   JOINT LeftUpLeg
   {
      OFFSET 10.734961 -10.400485 0.121982
      CHANNELS 3 Zrotation Xrotation Yrotation
      JOINT LeftLeg
      {
         OFFSET 0.000000 -53.307237 1.647240
         CHANNELS 3 Zrotation Xrotation Yrotation
         JOINT LeftFoot
         {
            OFFSET -0.304259 -50.510883 -1.752708
            CHANNELS 3 Zrotation Xrotation Yrotation
            JOINT LeftToes
            {
               OFFSET -0.048000 -5.298108 10.198920
               CHANNELS 3 Zrotation Xrotation Yrotation
               End Site
               {
                  OFFSET 0.096000 -0.056938 11.735748
               }
            }
         }
      }
   }
}
MOTION
Frames: 5
Frame Time: 0.016667
-304.420161 112.091521 14.543618 -13.979528 53.976256 -165.448014 -20.811098 46.836267 72.648569 9.862289 30.217443 42.652769 -19.597628 22.323225 -11.069616 12.020071 -12.457804 -51.744991 43.313296 29.442603 130.276310 32.703728 -8.109549 -106.706659 -32.073609 71.915731 35.412092 -7.535726 215.139730 91.692073 274.300151 130.006067 51.997759 -88.485333 130.636712 56.922807 -87.147838 -56.639327 -117.217821 -142.468211 346.936563 171.454755 146.819410 232.511005 469.286561 94.679310 214.018910 123.091675 -40.324214 -37.793988 9.462506 35.901045 36.214233 60.248866 12.421121 23.649014 30.541461 -40.761903 60.331047 -24.114954 26.284103 -32.663047 -37.198351
-301.647830 111.631020 15.053717 -10.875202 50.949496 -169.468359 -20.782153 45.073494 79.212422 12.705299 26.845029 29.874858 -20.757761 19.874291 -10.166845 11.573207 -11.231283 -51.043069 44.310477 30.400048 133.586465 31.418327 -6.334861 -104.378507 -32.441817 72.846071 35.266551 -5.400668 217.578681 95.825252 280.354895 132.479879 48.391166 -90.386940 130.926284 63.887759 -84.679668 -61.930992 -115.722584 -138.731018 346.753869 169.324146 161.846018 234.872119 482.440467 97.476444 211.721275 119.707453 -42.738806 -42.021789 6.031442 35.826220 33.924016 63.498650 13.519156 22.194155 24.313583 -40.123772 57.951088 -25.077487 27.116560 -33.083005 -37.168998
-298.975787 111.245354 15.362730 -8.660360 49.028590 -173.065519 -21.005927 44.208475 85.187800 15.916171 25.088311 17.956101 -23.979363 15.704900 -9.303212 10.726476 -11.946920 -50.830032 48.576503 31.604993 135.372929 30.444318 -4.858275 -102.999731 -32.295054 73.237912 35.164751 -2.366530 220.573897 99.688271 286.431441 132.992280 45.728632 -93.120975 132.875265 69.653853 -84.664313 -65.570007 -120.231943 -134.307050 346.991969 166.936708 177.901142 236.550952 498.033297 100.060844 208.110687 118.076431 -45.090877 -45.980250 2.513741 35.793897 32.615707 66.427162 15.959587 21.276166 16.799110 -40.085960 55.113882 -25.522382 27.878228 -33.604473 -37.069171
-296.481643 110.848015 15.494361 -7.098922 47.859969 -175.556612 -20.743233 43.628288 90.143689 18.997469 22.216630 7.614906 -23.891322 14.425453 -8.239199 10.117984 -12.051295 -50.627729 49.978550 32.085480 136.996806 30.241052 -4.161729 -100.898983 -31.498835 75.344425 34.845289 1.857113 221.683229 103.364996 291.395732 134.230183 42.300062 -95.837205 135.044957 75.613794 -84.092674 -68.439288 -119.266168 -129.016741 344.735220 165.577678 194.522271 238.772348 511.169937 102.421514 205.530187 115.864064 -47.386865 -49.854353 -0.777746 35.001458 31.163435 68.524153 18.512405 19.117522 10.966506 -39.754314 53.020692 -25.549250 28.361225 -34.573263 -36.813719
-294.212737 110.530670 15.554266 -5.760766 46.937408 -176.534927 -20.817938 43.347454 94.751437 20.760075 17.874139 0.250773 -24.454630 13.405436 -6.882428 9.455139 -12.288916 -50.087136 51.046877 32.297291 137.855238 29.182786 -3.354050 -99.384566 -29.706381 77.688662 34.396232 5.551512 223.377157 106.192954 295.490895 135.359378 39.878746 -98.202001 137.094273 81.291129 -84.181897 -70.843439 -122.498323 -123.368789 339.862345 166.126757 210.758123 240.857851 522.120205 104.942763 203.325866 112.825040 -49.425896 -53.436156 -3.683653 34.460859 29.749179 70.183322 19.474643 15.426223 5.885781 -39.393526 51.970718 -25.784623 28.847324 -35.645296 -36.701639
